<svg xmlns="http://www.w3.org/2000/svg" xmlns:xlink="http://www.w3.org/1999/xlink" viewBox="0,0,256,256" width="160px" height="160px" fill-rule="nonzero"><g fill="#cfcfcf" fill-rule="nonzero" stroke="none" stroke-width="1" stroke-linecap="butt" stroke-linejoin="miter" stroke-miterlimit="10" stroke-dasharray="" stroke-dashoffset="0" font-family="none" font-weight="none" font-size="none" text-anchor="none" style="mix-blend-mode: normal"><path d="M0,256v-256h256v256z" id="bgRectangle"></path></g><g fill="none" fill-rule="nonzero" stroke="none" stroke-width="1" stroke-linecap="butt" stroke-linejoin="miter" stroke-miterlimit="10" stroke-dasharray="" stroke-dashoffset="0" font-family="none" font-weight="none" font-size="none" text-anchor="none" style="mix-blend-mode: normal"><g transform="scale(8.53333,8.53333)"><path d="M15,28.5c-1.001,0 -1.933,-0.498 -2.492,-1.331l-0.087,-0.13l-0.146,-0.058c-2.901,-1.133 -4.775,-3.874 -4.775,-6.981v-10.632c0,-1.826 1.486,-3.312 3.312,-3.312h8.375c1.826,0 3.313,1.486 3.313,3.312v10.632c0,3.107 -1.874,5.848 -4.774,6.981l-0.146,0.058l-0.087,0.13c-0.56,0.833 -1.492,1.331 -2.493,1.331z" fill="#ffeea3"></path><path d="M19.187,6.556c1.551,0 2.813,1.261 2.813,2.812v10.632c0,2.9 -1.749,5.457 -4.456,6.515l-0.292,0.114l-0.175,0.26c-0.466,0.696 -1.243,1.111 -2.077,1.111c-0.834,0 -1.611,-0.415 -2.077,-1.11l-0.175,-0.26l-0.292,-0.114c-2.707,-1.059 -4.456,-3.616 -4.456,-6.516v-10.632c0,-1.551 1.262,-2.813 2.813,-2.813h8.374M19.187,5.556h-8.375c-2.105,0 -3.812,1.707 -3.812,3.812v10.632c0,3.391 2.114,6.283 5.092,7.447c0.628,0.936 1.696,1.553 2.908,1.553c1.212,0 2.28,-0.617 2.908,-1.553c2.978,-1.164 5.092,-4.056 5.092,-7.447v-10.632c0,-2.105 -1.707,-3.812 -3.813,-3.812z" fill="#ba9b48"></path><path d="M19,18c-0.55228,0 -1,0.44772 -1,1c0,0.55228 0.44772,1 1,1c0.55228,0 1,-0.44772 1,-1c0,-0.55228 -0.44772,-1 -1,-1zM11,18c-0.55228,0 -1,0.44772 -1,1c0,0.55228 0.44772,1 1,1c0.55228,0 1,-0.44772 1,-1c0,-0.55228 -0.44772,-1 -1,-1z" fill="#36404d"></path><g><path d="M23,27.5c-1.825,0 -3.275,-0.679 -4.054,-1.143c1.232,-0.794 3.554,-2.764 3.554,-6.357v-5.088c0,-2.652 -3.139,-4.289 -3.272,-4.357l-0.428,-0.219l-0.237,0.421c-0.07,0.125 -1.78,3.078 -6.631,3.748c-2.692,0.371 -4.432,2.359 -4.432,5.066v0.429c0,3.593 2.238,5.529 3.487,6.33c-0.885,0.473 -2.44,1.17 -3.933,1.17c-2.021,0 -4.146,-1.006 -5.166,-1.562c0.935,-0.806 2.612,-2.583 2.612,-4.938c0,-1.005 -0.225,-2.045 -0.462,-3.146c-0.265,-1.225 -0.538,-2.491 -0.538,-3.845c0,-7.83 5.339,-12.509 10.5,-12.509c3.84,0 5.504,2.646 5.573,2.76l0.146,0.239l0.281,0.001c3.13,0 6.5,2.35 6.5,7.509c0,1.633 -0.278,3.361 -0.546,5.032c-0.234,1.451 -0.454,2.823 -0.454,3.959c0,2.163 1.706,3.521 2.664,4.112c-0.888,0.801 -2.93,2.388 -5.164,2.388z" fill="#ffc49c"></path><path d="M14,2c3.539,0 5.083,2.419 5.144,2.516l0.291,0.484h0.565c2.89,0 6,2.193 6,7.009c0,1.593 -0.275,3.301 -0.54,4.953c-0.237,1.472 -0.46,2.862 -0.46,4.038c0,2.013 1.309,3.386 2.348,4.159c-1.049,0.839 -2.695,1.841 -4.348,1.841c-1.267,0 -2.342,-0.351 -3.108,-0.708c1.343,-1.056 3.108,-3.06 3.108,-6.292v-5.087c0,-2.955 -3.4,-4.729 -3.544,-4.803l-0.853,-0.428l-0.474,0.829c-0.067,0.117 -1.688,2.867 -6.265,3.499c-2.955,0.407 -4.864,2.591 -4.864,5.561v0.226v0.203c0,3.218 1.688,5.192 3.021,6.25c-0.832,0.376 -1.922,0.75 -2.967,0.75c-1.568,0 -3.225,-0.653 -4.307,-1.182c0.995,-0.998 2.253,-2.682 2.253,-4.818c0,-1.058 -0.23,-2.124 -0.474,-3.252c-0.258,-1.199 -0.526,-2.438 -0.526,-3.739c0,-5.903 3.74,-12.009 10,-12.009M14,1c-5.695,0 -11,5.14 -11,13.009c0,2.642 1,4.956 1,6.991c0,2.968 -3,5 -3,5c0,0 3.096,2 6.054,2c2.434,0 4.943,-1.683 4.943,-1.683c0,0 -3.997,-1.713 -3.997,-6.317c0,-0.152 0,-0.203 0,-0.203v0.194c0,0 0,-0.095 0,-0.42c0,-2.71 1.783,-4.265 4,-4.571c5.186,-0.716 7,-4 7,-4c0,0 3,1.535 3,3.913c0,1.125 0,3.24 0,5.087c0,4.517 -4,6.317 -4,6.317c0,0 2.012,1.683 5,1.683c3.236,0 6,-3 6,-3c0,0 -3,-1.346 -3,-4c0,-2.358 1,-5.865 1,-8.991c0,-5.302 -3.518,-8.009 -7,-8.009c0,0 -1.809,-3 -6,-3z" fill="#a16a4a"></path></g></g></g></svg>